<?xml version="1.0" encoding="iso-8859-1"?>
<!-- Generator: Adobe Illustrator 19.0.0, SVG Export Plug-In . SVG Version: 6.00 Build 0)  -->
<svg version="1.1" id="Layer_1" xmlns="http://www.w3.org/2000/svg" xmlns:xlink="http://www.w3.org/1999/xlink" x="0px" y="0px"
	 viewBox="0 0 512 512" style="enable-background:new 0 0 512 512;" xml:space="preserve">
<g>
	<g>
		<path d="M504.396,243.241c4.199,0,7.604-3.405,7.604-7.604v-42.577c0-2.675-1.405-5.152-3.701-6.526l-43.221-25.853
			c-1.18-0.706-2.529-1.078-3.903-1.078h-8.043c19.041-14.12,31.409-36.752,31.409-62.226c0-42.696-34.735-77.431-77.431-77.431
			c-16.771,0-157.251,41.785-159.527,42.32c-15.932,3.736-27.831,18.056-27.831,35.111c0,17.281,12.218,31.757,28.468,35.258v26.967
			H182.11v-10.969h8.596c4.199,0,7.604-3.405,7.604-7.604s-3.405-7.604-7.604-7.604h-8.596v-10.967h8.596
			c4.199,0,7.604-3.405,7.604-7.604s-3.405-7.604-7.604-7.604h-8.596V96.19h8.596c4.199,0,7.604-3.405,7.604-7.604
			c0-4.199-3.405-7.604-7.604-7.604h-8.596V70.107h8.596c4.199,0,7.604-3.405,7.604-7.604s-3.405-7.604-7.604-7.604h-8.596V44.026
			h8.596c4.199,0,7.604-3.405,7.604-7.604c0-4.199-3.405-7.604-7.604-7.604h-16.2h-57.787h-16.199c-4.199,0-7.604,3.405-7.604,7.604
			c0,4.199,3.405,7.604,7.604,7.604h8.596V54.9h-8.596c-4.199,0-7.604,3.405-7.604,7.604s3.405,7.604,7.604,7.604h8.596v10.875
			h-8.596c-4.199,0-7.604,3.405-7.604,7.604c0,4.199,3.405,7.604,7.604,7.604h8.596v11.06h-8.596c-4.199,0-7.604,3.405-7.604,7.604
			c0,4.199,3.405,7.604,7.604,7.604h8.596v10.966h-8.596c-4.199,0-7.604,3.405-7.604,7.604s3.405,7.604,7.604,7.604h8.596v10.97
			h-58.29c-1.375,0-2.724,0.373-3.903,1.078L3.701,186.533C1.405,187.907,0,190.385,0,193.059v199.214
			c0,2.675,1.405,5.152,3.701,6.526l43.221,25.853c1.18,0.706,2.529,1.078,3.903,1.078h11.321
			c3.821,37.206,35.344,66.324,73.542,66.324s69.721-29.118,73.542-66.324h148.388l8.918,33.66
			c5.096,19.232,22.549,32.664,42.444,32.664c15.994,0,29.007-13.012,29.007-29.007v-37.317h23.187c1.375,0,2.724-0.373,3.903-1.078
			l43.221-25.853c2.295-1.373,3.701-3.851,3.701-6.526V263.009c0-4.199-3.405-7.604-7.604-7.604s-7.604,3.405-7.604,7.604v124.952
			l-37.718,22.561H430.48c-0.033,0-0.065-0.005-0.098-0.005s-0.065,0.004-0.098,0.005h-66.487c-0.021-0.001-0.043,0.001-0.063,0
			H209.233c-3.816-37.21-35.342-66.333-73.544-66.333c-38.201,0-69.727,29.123-73.544,66.333h-9.219l-37.718-22.561v-190.59
			l37.718-22.561h406.149l37.718,22.561v38.265C496.792,239.836,500.197,243.241,504.396,243.241z M422.78,425.731v37.317
			c0,7.608-6.19,13.799-13.799,13.799c-13.005,0-24.413-8.78-27.743-21.351l-7.887-29.765H422.78z M135.688,359.397
			c32.381,0,58.725,26.343,58.725,58.724s-26.344,58.725-58.725,58.725c-32.381,0-58.725-26.343-58.725-58.725
			C76.964,385.741,103.308,359.397,135.688,359.397z M166.902,159.599h-42.579v-10.967h42.579V159.599z M166.902,133.424h-42.579
			c0,0,0-10.967,0-10.967h42.579V133.424z M166.902,107.25h-42.579c0,0,0-11.06,0-11.06h42.579V107.25z M166.902,80.982h-42.579
			c0,0,0-10.875,0-10.875h42.579V80.982z M166.902,54.9h-42.579c0,0,0-10.874,0-10.874h42.579V54.9z M234.96,97.376
			c0-11.499,9.35-20.853,20.847-20.863c0.005,0,0.009,0.001,0.013,0.001c0.006,0,0.012-0.001,0.018-0.001
			c11.498,0.008,20.85,9.363,20.85,20.863c0,11.504-9.359,20.864-20.864,20.864S234.96,108.882,234.96,97.376z M263.429,159.602
			v-23.626h0l81.211,23.626H263.429z M279.278,124.75c7.715-6.621,12.617-16.432,12.617-27.371s-4.902-20.753-12.617-27.373
			l66.025-19.208c-9.8,12.971-15.624,29.106-15.624,46.58c0,17.474,5.824,33.609,15.624,46.58L279.278,124.75z M407.111,159.599
			c-34.31,0-62.223-27.913-62.223-62.223c0-34.31,27.913-62.223,62.223-62.223c34.31,0,62.223,27.914,62.223,62.223
			C469.334,131.686,441.421,159.599,407.111,159.599z"/>
	</g>
</g>
<g>
	<g>
		<path d="M170.595,395.109c-2.315-3.505-7.033-4.47-10.535-2.154c-3.505,2.314-4.469,7.031-2.154,10.535
			c2.866,4.341,4.382,9.401,4.382,14.632c0,14.667-11.932,26.599-26.599,26.599c-14.667,0-26.599-11.932-26.599-26.599
			c0-14.666,11.932-26.599,26.599-26.599c4.199,0,7.604-3.405,7.604-7.604s-3.405-7.604-7.604-7.604
			c-23.052,0-41.807,18.754-41.807,41.807c0,23.052,18.754,41.807,41.806,41.807c23.052,0,41.807-18.754,41.807-41.807
			C177.495,409.902,175.109,401.943,170.595,395.109z"/>
	</g>
</g>
<g>
	<g>
		<path d="M407.111,72.152c-13.909,0-25.225,11.316-25.225,25.225c0,13.909,11.316,25.225,25.225,25.225
			c13.909,0,25.225-11.316,25.225-25.225C432.336,83.468,421.02,72.152,407.111,72.152z M407.111,107.393
			c-5.524,0-10.017-4.493-10.017-10.017c0-5.524,4.493-10.017,10.017-10.017c5.523,0,10.017,4.493,10.017,10.017
			C417.128,102.9,412.635,107.393,407.111,107.393z"/>
	</g>
</g>
<g>
</g>
<g>
</g>
<g>
</g>
<g>
</g>
<g>
</g>
<g>
</g>
<g>
</g>
<g>
</g>
<g>
</g>
<g>
</g>
<g>
</g>
<g>
</g>
<g>
</g>
<g>
</g>
<g>
</g>
</svg>
